# xmcd
#
# Track frame offsets:
#	150
#	15842
#	29625
#	46299
#	60979
#	75006
#	89419
#	107463
#	118624
#	132651
#	149765
#	166354
#	184459
#	198304
#	210305
#	224545
#
# Disc length: 3243 seconds
#
# Revision: 1
# Processed by: cddbd v1.5.2PL0 Copyright (c) Steve Scherf et al.
# Submitted via: audiograbber 1.83.01
#
DISCID=dd0ca910
DTITLE=Various Artist - CDX Volume 556 (October 8, 2012)
DYEAR=2012
DGENRE=Country
TTITLE0=Faith Hill - American Heart 
TTITLE1=Brett Eldredge - Don't Ya 
TTITLE2=Montgomery Gentry - I'll Keep The Kids
TTITLE3=Jamey Johnson (with Hank Cochran, Kris Kristofferson, Willie Nelson and
TTITLE3=Merle Haggard) - Living For A Song 
TTITLE4=Jamey Johnson (with Alison Krauss) - Make The World Go Away 
TTITLE5=Uncle Kracker - Nobody's Sad On A Saturday Night
TTITLE6=Heartland - The Sound A Dream Makes
TTITLE7=Angel Mary and The Tennessee Werewolves - Cowboy 
TTITLE8=Chris Cox - December In The Snow
TTITLE9=Samantha Landrum - Hometown 
TTITLE10=Hannah McNeil - I Gotta Leave You For Me
TTITLE11=Josh Abbott Band - I'll Sing About Mine
TTITLE12=Joe Bachman - Small Town Rock Stars
TTITLE13=David Leach - The Show
TTITLE14=Carrie Zaruba - Woman On A Mission
TTITLE15=Wade Hayes - Is It Already Time
EXTD=
EXTT0=
EXTT1=
EXTT2=
EXTT3=
EXTT4=
EXTT5=
EXTT6=
EXTT7=
EXTT8=
EXTT9=
EXTT10=
EXTT11=
EXTT12=
EXTT13=
EXTT14=
EXTT15=
PLAYORDER=
